<?xml version="1.0" standalone="no"?>
<!DOCTYPE svg PUBLIC "-//W3C//DTD SVG 20010904//EN"
 "http://www.w3.org/TR/2001/REC-SVG-20010904/DTD/svg10.dtd">
<svg version="1.0" xmlns="http://www.w3.org/2000/svg"
 width="256.000000pt" height="256.000000pt" viewBox="0 0 256.000000 256.000000"
 preserveAspectRatio="xMidYMid meet">

<g transform="translate(0.000000,256.000000) scale(0.100000,-0.100000)"
fill="#000000" stroke="none">
<path d="M1540 2156 c-71 -21 -92 -31 -147 -75 -102 -80 -157 -229 -133 -362
24 -133 88 -216 215 -282 55 -29 68 -31 155 -32 85 0 101 3 155 29 200 99 276
318 180 520 -50 106 -152 183 -275 206 -67 13 -94 12 -150 -4z m188 -47 c159
-52 250 -188 240 -357 -6 -95 -35 -160 -99 -223 -67 -66 -127 -91 -224 -97
-64 -3 -91 0 -135 17 -160 60 -262 251 -220 409 37 135 140 242 264 273 41 10
97 3 174 -22z"/>
<path d="M1494 1970 c-59 -24 -90 -103 -61 -160 15 -29 72 -70 99 -70 34 0 83
29 101 59 55 94 -40 211 -139 171z"/>
<path d="M2100 2137 c0 -4 22 -37 49 -74 53 -74 110 -181 134 -254 9 -25 28
-104 43 -175 24 -114 26 -142 21 -254 -8 -165 -54 -353 -113 -457 -13 -24 -36
-64 -50 -90 -15 -27 -39 -64 -53 -83 -15 -19 -34 -46 -43 -60 -27 -43 -150
-165 -208 -206 -74 -52 -84 -58 -158 -94 -87 -43 -101 -39 -128 37 -24 72 -25
72 58 110 108 50 223 149 300 258 108 152 164 349 140 494 -15 85 -30 121 -52
121 -9 0 -54 -25 -101 -56 -195 -128 -466 -238 -769 -312 -149 -37 -267 -53
-455 -61 l-140 -6 -3 -33 c-6 -64 94 -221 194 -304 24 -20 64 -49 89 -65 42
-26 45 -31 45 -71 0 -50 -23 -110 -45 -118 -31 -12 -209 94 -320 191 -72 63
-199 216 -226 272 -11 24 -25 45 -29 48 -16 10 -108 260 -124 339 -9 43 -17
122 -18 175 l-2 96 -5 -115 c-4 -63 -3 -149 2 -190 7 -78 35 -208 47 -225 4
-5 10 -23 14 -38 12 -51 85 -189 142 -268 143 -197 323 -329 590 -429 18 -6
46 -29 63 -51 40 -49 99 -83 179 -104 107 -27 212 4 315 94 32 28 67 51 77 51
38 0 210 69 300 121 88 51 248 192 325 289 84 104 145 231 205 425 14 46 30
191 30 275 0 227 -57 425 -175 610 -23 36 -49 72 -56 80 -8 8 -31 37 -52 64
-20 27 -37 46 -37 43z m-70 -842 c13 -15 6 -149 -8 -173 -19 -30 -287 -167
-447 -230 -235 -91 -533 -152 -740 -152 l-94 0 -33 42 c-90 114 -88 128 17
128 359 0 887 153 1200 348 44 28 83 51 86 51 4 1 12 -6 19 -14z m-565 -856
c20 -38 19 -92 -2 -117 -33 -38 -129 -65 -233 -66 -170 -1 -239 41 -223 137 9
57 33 72 90 59 81 -18 122 -36 126 -54 7 -24 24 -23 32 1 6 19 100 66 145 73
36 6 49 -1 65 -33z"/>
<path d="M713 1711 c-32 -8 -96 -50 -121 -81 -54 -63 -70 -205 -32 -280 20
-39 81 -94 134 -120 36 -18 162 -19 194 -1 13 7 42 29 64 49 131 118 99 343
-60 418 -40 19 -133 27 -179 15z m175 -47 c93 -47 135 -139 118 -258 -9 -59
-77 -137 -141 -162 -101 -38 -221 5 -280 101 -57 92 -37 211 50 297 62 62 156
70 253 22z"/>
<path d="M753 1500 c-32 -13 -57 -57 -56 -99 1 -28 9 -42 34 -63 46 -38 82
-37 125 6 46 46 46 86 0 132 -35 35 -61 41 -103 24z"/>
</g>
</svg>
